<svg xmlns="http://www.w3.org/2000/svg" viewBox="0 0 36.36 40"><defs><style>.cls-1{fill:#65cba6;}.cls-2{fill:#f6fafc;}</style></defs><g id="Layer_2" data-name="Layer 2"><g id="Layer_1-2" data-name="Layer 1"><path class="cls-1" d="M36.22,5.1a4.06,4.06,0,0,0-2.87-5,4,4,0,0,0-3.07.41l-10,5.79L28.34,11l6-3.46A4,4,0,0,0,36.22,5.1Z"/><path class="cls-1" d="M32.3,40a4.07,4.07,0,0,0,3.51-2,4,4,0,0,0-1.48-5.53L12.79,20l3.33-1.92L8,13.4,2.66,16.49a4,4,0,0,0,0,7L30.28,39.45A4,4,0,0,0,32.3,40Z"/><path class="cls-2" d="M8,29,2,32.43a4.05,4.05,0,1,0,4.05,7l10-5.79Z"/><path class="cls-2" d="M33.7,23.51a4.06,4.06,0,0,0,0-7L6.08.54A4.06,4.06,0,0,0,.54,2,4.05,4.05,0,0,0,2,7.56L23.57,20l-3.34,1.92,8.11,4.68Z"/></g></g></svg>
