<svg xmlns="http://www.w3.org/2000/svg" viewBox="0 0 59.18 11.41"><defs><style>.cls-1{fill:#1b252b;}</style></defs><g id="Layer_2" data-name="Layer 2"><g id="Layer_1-2" data-name="Layer 1"><path class="cls-1" d="M0,4.73A4.7,4.7,0,0,1,5,0,4.73,4.73,0,0,1,8.73,1.62L7.37,2.88A2.92,2.92,0,0,0,5.07,1.8,2.81,2.81,0,0,0,2.14,4.73,2.81,2.81,0,0,0,5.07,7.66a2.92,2.92,0,0,0,2.3-1.08L8.73,7.83A4.69,4.69,0,0,1,5,9.46,4.7,4.7,0,0,1,0,4.73Z"/><path class="cls-1" d="M9.72.16h2.11V7.58h4.59V9.31H9.72Z"/><path class="cls-1" d="M17.5.16h2.12V9.31H17.5Z"/><path class="cls-1" d="M31.18,10.29a3.09,3.09,0,0,1-2.47,1.12c-1.36,0-2.31-.49-3.72-2a4.67,4.67,0,0,1-4.28-4.69,4.74,4.74,0,0,1,5-4.73,4.73,4.73,0,0,1,5,4.73A4.59,4.59,0,0,1,27.46,9.2a1.67,1.67,0,0,0,1.29.64,2,2,0,0,0,1.49-.68ZM25.72,7.66a2.79,2.79,0,0,0,2.86-2.93,2.86,2.86,0,1,0-5.72,0A2.79,2.79,0,0,0,25.72,7.66Z"/><path class="cls-1" d="M38.85,7.61v1.7H31.77V.16h6.91v1.7H33.87v2h4.25V5.49H33.87V7.61Z"/><path class="cls-1" d="M45.71,9.31,44,6.76H42V9.31H39.88V.16h4c2.45,0,4,1.26,4,3.32a3,3,0,0,1-1.88,2.89l2,2.94Zm-2-7.43H42V5.07h1.72c1.3,0,2-.6,2-1.59S45,1.88,43.72,1.88Z"/><circle class="cls-1" cx="25.74" cy="4.64" r="1.03"/><path class="cls-1" d="M48.67,8.47a.89.89,0,1,1,.89.89A.87.87,0,0,1,48.67,8.47Z"/><path class="cls-1" d="M51.24,2.9a.81.81,0,0,1,.88-.79.8.8,0,0,1,.88.77.88.88,0,0,1-1.76,0Zm.17,1.48h1.42V9.29H51.41Z"/><path class="cls-1" d="M53.79,6.83a2.7,2.7,0,1,1,2.7,2.53A2.53,2.53,0,0,1,53.79,6.83Zm4,0a1.26,1.26,0,1,0-2.51,0,1.26,1.26,0,1,0,2.51,0Z"/></g></g></svg>
