<svg xmlns="http://www.w3.org/2000/svg" viewBox="0 0 176.76 176.76"><defs><style>.cls-1{fill:#fff;}</style></defs><g id="Layer_2" data-name="Layer 2"><g id="Layer_1-2" data-name="Layer 1"><path class="cls-1" d="M97.89,59.62a19.28,19.28,0,0,1,19.25,19.25,9.31,9.31,0,1,0,18.62,0A37.91,37.91,0,0,0,97.89,41a9.31,9.31,0,0,0,0,18.62Z"/><path class="cls-1" d="M97.89,18.62a60.32,60.32,0,0,1,60.25,60.25,9.31,9.31,0,0,0,18.62,0A79,79,0,0,0,97.89,0a9.31,9.31,0,0,0,0,18.62Z"/><path class="cls-1" d="M114.31,176.61a52.67,52.67,0,0,0,41.19-15.28l6.29-6.29a12.5,12.5,0,0,0-2.26-19.47l-32.25-19.95a12.51,12.51,0,0,0-17.36,4.31l-7.32,12.5a5.75,5.75,0,0,1-9,1.16L43.17,83.18a5.75,5.75,0,0,1,1.16-9l12.5-7.32a12.51,12.51,0,0,0,4.31-17.36l-20-32.25A12.5,12.5,0,0,0,21.72,15l-6.29,6.29A52.67,52.67,0,0,0,.15,62.45,47,47,0,0,0,13.76,92.13L84.63,163A47,47,0,0,0,114.31,176.61Z"/></g></g></svg>
