<svg xmlns="http://www.w3.org/2000/svg" viewBox="0 0 63.07 15"><defs><style>.cls-1{fill:#fff;}.cls-2{fill:#65cba6;}</style></defs><g id="Layer_2" data-name="Layer 2"><g id="Layer_1-2" data-name="Layer 1"><path class="cls-1" d="M0,6.22A6.18,6.18,0,0,1,6.53,0a6.23,6.23,0,0,1,5,2.13L9.69,3.78a3.86,3.86,0,0,0-3-1.41A3.69,3.69,0,0,0,2.82,6.22a3.69,3.69,0,0,0,3.85,3.85,3.82,3.82,0,0,0,3-1.43l1.79,1.65a6.2,6.2,0,0,1-5,2.15A6.17,6.17,0,0,1,0,6.22Z"/><path class="cls-1" d="M12.77.21h2.78V10h6v2.26H12.77Z"/><path class="cls-1" d="M23,.21h2.79v12H23Z"/><path class="cls-1" d="M41,13.52A4.09,4.09,0,0,1,37.74,15c-1.79,0-3-.65-4.9-2.61a6.14,6.14,0,0,1-5.62-6.17A6.23,6.23,0,0,1,33.8,0c3.79,0,6.59,2.63,6.59,6.22a6.06,6.06,0,0,1-4.3,5.88,2.24,2.24,0,0,0,1.7.84,2.59,2.59,0,0,0,2-.9ZM33.8,10.07a3.67,3.67,0,0,0,3.77-3.85,3.77,3.77,0,1,0-7.53,0A3.67,3.67,0,0,0,33.8,10.07Z"/><path class="cls-1" d="M51.07,10v2.23H41.76V.21h9.09V2.44H44.52V5.05h5.59V7.22H44.52V10Z"/><path class="cls-1" d="M60.08,12.23,57.76,8.88H55.2v3.35H52.42V.21h5.21c3.21,0,5.22,1.66,5.22,4.36a3.91,3.91,0,0,1-2.48,3.8l2.7,3.86ZM57.47,2.47H55.2v4.2h2.27c1.7,0,2.56-.79,2.56-2.1S59.17,2.47,57.47,2.47Z"/><circle class="cls-2" cx="33.83" cy="6.1" r="1.36"/></g></g></svg>
